# xmcd CD database file
#
# Track frame offsets:
#	150
#	23143
#	49935
#	71359
#	110484
#	130754
#	145206
#	167266
#	189376
#	203909
#	229999
#	259157
#
# Disc length: 3940 seconds
#
# Revision: 1
# Processed by: cddbd v1.4PL0 Copyright (c) Steve Scherf et al.
# Submitted via: CDex 1.50Beta7
#
DISCID=a50f620c
DTITLE=Jerry Garcia - The Pizza Tapes
DYEAR=1900
DGENRE=Blues
TTITLE0=Man of Constant Sorrow
TTITLE1=Louis Collins
TTITLE2=Shady Grove
TTITLE3=Guitar Space-Summertime
TTITLE4=Long Black Veil
TTITLE5=Rosalee McFall
TTITLE6=Drifting Too Far from the Shore
TTITLE7=Amazing Grace
TTITLE8=Little Sadie
TTITLE9=Knockin' on Heaven's Door
TTITLE10=So What
TTITLE11=House of the Rising Sun
EXTD=
EXTT0=
EXTT1=
EXTT2=
EXTT3=
EXTT4=
EXTT5=
EXTT6=
EXTT7=
EXTT8=
EXTT9=
EXTT10=
EXTT11=
PLAYORDER=
